<mxfile host="app.diagrams.net" modified="2023-06-28T00:59:51.039Z" agent="Mozilla/5.0 (Windows NT 10.0; Win64; x64) AppleWebKit/537.36 (KHTML, like Gecko) Chrome/114.0.0.0 Safari/537.36" etag="BbIjIPSjI4TuxmJu-ZNh" version="21.5.1" type="device">
  <diagram name="Page-1" id="zxyDZLyTeJPGnDxdxqqy">
    <mxGraphModel dx="1434" dy="788" grid="1" gridSize="10" guides="1" tooltips="1" connect="1" arrows="1" fold="1" page="1" pageScale="1" pageWidth="850" pageHeight="1100" math="0" shadow="0">
      <root>
        <mxCell id="0" />
        <mxCell id="1" parent="0" />
        <mxCell id="cKdAE9wjdf8UZiMSTeiW-1" value="" style="whiteSpace=wrap;html=1;aspect=fixed;" parent="1" vertex="1">
          <mxGeometry x="70" y="60" width="710" height="710" as="geometry" />
        </mxCell>
        <mxCell id="kFYyw7tQY4dRqwrhnXBY-1" value="" style="rounded=0;whiteSpace=wrap;html=1;" vertex="1" parent="1">
          <mxGeometry x="70" y="60" width="710" height="60" as="geometry" />
        </mxCell>
        <mxCell id="kFYyw7tQY4dRqwrhnXBY-2" value="" style="rounded=0;whiteSpace=wrap;html=1;" vertex="1" parent="1">
          <mxGeometry x="740" y="120" width="20" height="20" as="geometry" />
        </mxCell>
        <mxCell id="kFYyw7tQY4dRqwrhnXBY-3" value="" style="triangle;whiteSpace=wrap;html=1;rotation=90;" vertex="1" parent="1">
          <mxGeometry x="745" y="120" width="10" height="10" as="geometry" />
        </mxCell>
        <mxCell id="kFYyw7tQY4dRqwrhnXBY-7" value="Home" style="text;html=1;strokeColor=none;fillColor=none;align=center;verticalAlign=middle;whiteSpace=wrap;rounded=0;" vertex="1" parent="1">
          <mxGeometry x="80" y="70" width="60" height="30" as="geometry" />
        </mxCell>
        <mxCell id="kFYyw7tQY4dRqwrhnXBY-8" value="About" style="text;html=1;strokeColor=none;fillColor=none;align=center;verticalAlign=middle;whiteSpace=wrap;rounded=0;" vertex="1" parent="1">
          <mxGeometry x="140" y="70" width="60" height="30" as="geometry" />
        </mxCell>
        <mxCell id="kFYyw7tQY4dRqwrhnXBY-9" value="Contact" style="text;html=1;strokeColor=none;fillColor=none;align=center;verticalAlign=middle;whiteSpace=wrap;rounded=0;" vertex="1" parent="1">
          <mxGeometry x="200" y="70" width="60" height="30" as="geometry" />
        </mxCell>
      </root>
    </mxGraphModel>
  </diagram>
</mxfile>
